<svg xmlns="http://www.w3.org/2000/svg" width="22" height="24" viewBox="0 0 22 24">
  <g id="Alert" transform="translate(-7.58 -6)">
    <g id="Group_67" data-name="Group 67" transform="translate(17.655 6)">
      <path id="Path_7571" data-name="Path 7571" d="M30.925,8.776A.926.926,0,0,1,30,7.851V6.925a.925.925,0,1,1,1.851,0v.925A.926.926,0,0,1,30.925,8.776Z" transform="translate(-30 -6)" fill="#fff"/>
    </g>
    <g id="Group_68" data-name="Group 68" transform="translate(9.877 6.926)">
      <path id="Path_7572" data-name="Path 7572" d="M29.056,17.928A.911.911,0,0,1,28.161,17,7.124,7.124,0,0,0,21.58,9.859a7.075,7.075,0,0,0-7.215,6.46c-.021.223-.031.453-.031.683a.9.9,0,1,1-1.789,0c0-.289.013-.577.039-.858a8.9,8.9,0,0,1,9.08-8.134A8.968,8.968,0,0,1,29.95,17a.91.91,0,0,1-.895.925Z" transform="translate(-12.545 -8.001)" fill="#fff"/>
    </g>
    <g id="Group_69" data-name="Group 69" transform="translate(25.431 17.244)">
      <path id="Path_7573" data-name="Path 7573" d="M50.113,36.265a.925.925,0,0,1-.636-.253,6.505,6.505,0,0,1-2.024-4.7.925.925,0,1,1,1.851,0,4.645,4.645,0,0,0,1.446,3.36.925.925,0,0,1-.636,1.6Z" transform="translate(-47.453 -30.382)" fill="#fff"/>
    </g>
    <g id="Group_70" data-name="Group 70" transform="translate(8.142 17.244)">
      <path id="Path_7574" data-name="Path 7574" d="M9.72,36.265a.925.925,0,0,1-.636-1.6,4.644,4.644,0,0,0,1.446-3.36.925.925,0,1,1,1.851,0,6.5,6.5,0,0,1-2.024,4.7A.926.926,0,0,1,9.72,36.265Z" transform="translate(-8.795 -30.382)" fill="#fff"/>
    </g>
    <g id="Group_71" data-name="Group 71" transform="translate(13.953 24.448)">
      <path id="Path_7575" data-name="Path 7575" d="M26.627,51.552A4.689,4.689,0,0,1,22,46.925a.925.925,0,1,1,1.851,0,2.776,2.776,0,1,0,5.552,0,.925.925,0,1,1,1.851,0A4.689,4.689,0,0,1,26.627,51.552Z" transform="translate(-22 -46)" fill="#fff"/>
    </g>
    <g id="Group_72" data-name="Group 72" transform="translate(7.58 21.265)">
      <path id="Path_7576" data-name="Path 7576" d="M10.339,44.141A2.79,2.79,0,0,1,8.431,39.35.926.926,0,1,1,9.7,40.694a.94.94,0,0,0,.636,1.6.925.925,0,0,1,0,1.851Z" transform="translate(-7.58 -39.096)" fill="#fff"/>
    </g>
    <g id="Group_73" data-name="Group 73" transform="translate(25.894 21.264)">
      <path id="Path_7577" data-name="Path 7577" d="M49.379,44.141a.925.925,0,1,1,0-1.851.941.941,0,0,0,.636-1.6.926.926,0,1,1,1.272-1.345,2.791,2.791,0,0,1-1.909,4.792Z" transform="translate(-48.454 -39.095)" fill="#fff"/>
    </g>
    <g id="Group_74" data-name="Group 74" transform="translate(9.877 14.975)">
      <path id="Path_7578" data-name="Path 7578" d="M13.469,29.585a.926.926,0,0,1-.925-.925V26.38a.925.925,0,0,1,1.851,0V28.66A.925.925,0,0,1,13.469,29.585Z" transform="translate(-12.544 -25.455)" fill="#fff"/>
    </g>
    <g id="Group_75" data-name="Group 75" transform="translate(25.432 14.975)">
      <path id="Path_7579" data-name="Path 7579" d="M48.379,29.585a.926.926,0,0,1-.925-.925V26.38a.925.925,0,0,1,1.851,0V28.66A.926.926,0,0,1,48.379,29.585Z" transform="translate(-47.454 -25.455)" fill="#fff"/>
    </g>
    <g id="Group_76" data-name="Group 76" transform="translate(9.414 24.458)">
      <path id="Path_7580" data-name="Path 7580" d="M28.979,47.851H12.44a.926.926,0,0,1,0-1.851H28.979a.926.926,0,0,1,0,1.851Z" transform="translate(-11.544 -46)" fill="#fff"/>
    </g>
  </g>
</svg>
