<svg xmlns="http://www.w3.org/2000/svg" width="18.722" height="15.584" viewBox="0 0 18.722 15.584">
  <path id="arrow_4_" data-name="arrow (4)" d="M3134.152,1395.3a2.317,2.317,0,0,1-.676.883l-6.308,6.308a1,1,0,0,1-1.319.227,3.644,3.644,0,0,1-.967-.96.963.963,0,0,1,.09-1.169c.055-.065.115-.126.175-.186q1.851-1.845,3.7-3.69c.048-.048.1-.088.184-.167H3116.6a1.053,1.053,0,0,1-1.168-1.161v-.677a1.008,1.008,0,0,1,1.1-1.089h12.407l.025-.036c-.048-.042-.1-.08-.143-.125l-3.681-3.687a1.059,1.059,0,0,1,0-1.672c.159-.16.316-.322.477-.477a1.021,1.021,0,0,1,1.5,0q3.359,3.35,6.711,6.706a1.579,1.579,0,0,1,.326.572Z" transform="translate(-3115.43 -1387.289)"/>
</svg>
