<svg xmlns="http://www.w3.org/2000/svg" width="23.998" height="23.998" viewBox="0 0 23.998 23.998">
  <g id="Friends" transform="translate(0.993 1)">
    <g id="Group_79" data-name="Group 79" transform="translate(-0.993 -1)">
      <g id="Group_78" data-name="Group 78">
        <path id="Path_7585" data-name="Path 7585" d="M8.955,186.935l-2.828,2.828a3,3,0,1,1-4.242-4.241l5.656-5.656a3,3,0,0,1,4.241,0,1,1,0,1,0,1.414-1.414,5,5,0,0,0-7.07,0L.471,184.107a5,5,0,1,0,7.071,7.069l2.828-2.828a1,1,0,1,0-1.414-1.414Z" transform="translate(0.993 -168.644)" fill="#fff"/>
        <path id="Path_7586" data-name="Path 7586" d="M203.52.464a5,5,0,0,0-7.071,0l-3.393,3.393a1,1,0,1,0,1.414,1.414l3.393-3.393a3,3,0,1,1,4.242,4.241l-6.221,6.221a3,3,0,0,1-4.241,0,1,1,0,1,0-1.414,1.414,5,5,0,0,0,7.07,0l6.221-6.221A5,5,0,0,0,203.52.464Z" transform="translate(-180.986 1)" fill="#fff"/>
      </g>
    </g>
  </g>
</svg>
