<svg xmlns="http://www.w3.org/2000/svg" width="26" height="24" viewBox="0 0 26 24">
  <g id="Places" transform="translate(0 -16.896)">
    <g id="Group_77" data-name="Group 77" transform="translate(0 16.896)">
      <path id="Path_7581" data-name="Path 7581" d="M23.874,19.152a7.137,7.137,0,0,0-10.413,0L13,19.633l-.459-.482A7.143,7.143,0,0,0,2.5,18.785q-.191.177-.369.367a7.882,7.882,0,0,0,0,10.77l10.2,10.686a.934.934,0,0,0,1.314.035l.036-.035,10.2-10.686A7.882,7.882,0,0,0,23.874,19.152Zm-1.345,9.5h0L13,38.632,3.475,28.651a6.023,6.023,0,0,1,0-8.229,5.277,5.277,0,0,1,7.421-.3q.155.142.3.3l1.133,1.187a.962.962,0,0,0,1.349,0l1.133-1.186a5.277,5.277,0,0,1,7.421-.3q.155.142.3.3A5.968,5.968,0,0,1,22.529,28.651Z" transform="translate(0 -16.896)" fill="#fff"/>
    </g>
  </g>
</svg>
