<svg xmlns="http://www.w3.org/2000/svg" width="16" height="16" viewBox="0 0 16 16">
  <g id="Share" transform="translate(-24 -23.999)">
    <path id="Path_7587" data-name="Path 7587" d="M142.907,28.544l1.712-1.712V35.89a.83.83,0,1,0,1.659,0V26.832l1.712,1.712a.83.83,0,1,0,1.173-1.173l-3.129-3.129a.83.83,0,0,0-1.173,0l-3.129,3.129a.83.83,0,0,0,1.173,1.173Z" transform="translate(-113.449)" fill="#fff"/>
    <path id="Path_7588" data-name="Path 7588" d="M39.172,232a.829.829,0,0,0-.828.83v6.36H25.655v-6.36a.828.828,0,1,0-1.655,0v6.637a1.381,1.381,0,0,0,1.379,1.383H38.621A1.381,1.381,0,0,0,40,239.466V232.83A.829.829,0,0,0,39.172,232Z" transform="translate(0 -200.85)" fill="#fff"/>
  </g>
</svg>
