<svg xmlns="http://www.w3.org/2000/svg" width="24" height="24" viewBox="0 0 24 24">
  <g id="Shots" transform="translate(-2.25 -2.25)">
    <path id="Path_7582" data-name="Path 7582" d="M23.033,26.25H5.462A3.212,3.212,0,0,1,2.25,23.038V5.462A3.212,3.212,0,0,1,5.462,2.25H23.033a3.212,3.212,0,0,1,3.212,3.212V23.038a3.212,3.212,0,0,1-3.212,3.212ZM5.462,4.1A1.366,1.366,0,0,0,4.1,5.462V23.038A1.366,1.366,0,0,0,5.462,24.4H23.033A1.366,1.366,0,0,0,24.4,23.038V5.462A1.366,1.366,0,0,0,23.033,4.1Z" transform="translate(0)" fill="#fff"/>
    <path id="Path_7583" data-name="Path 7583" d="M3.172,20.233a.921.921,0,0,1-.591-1.627l6.3-5.326a2.458,2.458,0,0,1,3.322.136l2.99,3a.614.614,0,0,0,.8,0L18.9,14.3a2.457,2.457,0,0,1,3,0l4,3.193a.929.929,0,0,1-1.157,1.455l-3.987-3.205a.614.614,0,0,0-.751,0L17.1,18a2.458,2.458,0,0,1-3.212-.222L10.9,14.722a.614.614,0,0,0-.824,0l-6.312,5.3A.885.885,0,0,1,3.172,20.233Z" transform="translate(0 2.401)" fill="#fff"/>
    <path id="Path_7584" data-name="Path 7584" d="M15.64,13.031a3.39,3.39,0,1,1,3.39-3.39,3.39,3.39,0,0,1-3.39,3.39Zm0-4.931A1.541,1.541,0,1,0,17.181,9.64,1.541,1.541,0,0,0,15.64,8.1Z" transform="translate(2.296 0.92)" fill="#fff"/>
  </g>
</svg>
